<svg height="512pt" viewBox="-40 0 512 512" width="512pt" xmlns="http://www.w3.org/2000/svg" xmlns:xlink="http://www.w3.org/1999/xlink"><linearGradient id="a" gradientUnits="userSpaceOnUse" x1="0" x2="431" y1="256" y2="256"><stop offset="0" stop-color="#87f1fc"/><stop offset=".2557" stop-color="#7fd4fb"/><stop offset=".5295" stop-color="#78bcfb"/><stop offset=".7844" stop-color="#74aefa"/><stop offset="1" stop-color="#73a9fa"/></linearGradient><path d="m271 512h-191c-44.113281 0-80-35.886719-80-80v-271c0-44.113281 35.886719-80 80-80h191c44.113281 0 80 35.886719 80 80v271c0 44.113281-35.886719 80-80 80zm-191-391c-22.054688 0-40 17.945312-40 40v271c0 22.054688 17.945312 40 40 40h191c22.054688 0 40-17.945312 40-40v-271c0-22.054688-17.945312-40-40-40zm351 261v-302c0-44.113281-35.886719-80-80-80h-222c-11.046875 0-20 8.953125-20 20s8.953125 20 20 20h222c22.054688 0 40 17.945312 40 40v302c0 11.046875 8.953125 20 20 20s20-8.953125 20-20zm0 0" fill="url(#a)"/></svg>